<svg width="1150" height="1143" viewBox="0 0 1150 1143" fill="none" xmlns="http://www.w3.org/2000/svg">
<path d="M1149.48 574.738C1149.48 257.231 892.029 0 574.738 0C257.231 0 0 257.231 0 574.738C0 861.532 210.103 1099.33 484.935 1142.4V740.909H338.988V574.774H484.935V448.08C484.935 304.072 570.607 224.543 701.934 224.543C764.832 224.543 830.676 235.75 830.676 235.75V377.172H758.079C686.812 377.172 664.541 421.534 664.541 466.974V574.738H823.923L798.311 740.873H664.541V1142.36C939.157 1099.29 1149.48 861.496 1149.48 574.702V574.738Z" fill="white"/>
</svg>
